<?xml version="1.0" encoding="UTF-8" standalone="no"?>
<!-- Generator: Adobe Illustrator 25.3.1, SVG Export Plug-In . SVG Version: 6.00 Build 0)  -->

<svg
   version="1.1"
   id="Layer_1"
   width="1000"
   height="816.7934"
   xml:space="preserve"
   viewBox="0 0 1000 816.7934"
   xmlns="http://www.w3.org/2000/svg"
   xmlns:svg="http://www.w3.org/2000/svg"><defs
     id="defs835" /><path
     fill="#6100a8"
     d="M 156.67779,816.29919 H 5.4026822 c -1.4911403,0 -2.8418108,-0.6051 -3.8196963,-1.58299 C 0.60510041,813.73832 0,812.38765 0,810.89651 v -637.5165 c 0,-1.49114 0.60510041,-2.84181 1.5829859,-3.8197 0.9778855,-0.97788 2.328556,-1.58298 3.8196963,-1.58298 H 156.67779 c 1.49114,0 2.84181,0.6051 3.81969,1.58298 0.97789,0.97789 1.58299,2.32856 1.58299,3.8197 v 637.5165 c 0,1.49114 -0.6051,2.84181 -1.58299,3.81969 -0.97788,0.97789 -2.32855,1.58299 -3.81969,1.58299 z"
     id="path824" /><path
     fill="#7222c6"
     d="M 480.83872,816.29919 H 232.31534 c -1.49114,0 -2.84181,-0.6051 -3.8197,-1.58299 -0.97788,-0.97788 -1.58298,-2.32855 -1.58298,-3.81969 V 43.715634 c 0,-1.49114 0.6051,-2.84181 1.58298,-3.81969 0.97789,-0.97789 2.32856,-1.58299 3.8197,-1.58299 h 248.52338 c 1.49114,0 2.84181,0.6051 3.8197,1.58299 0.97788,0.97788 1.58298,2.32855 1.58298,3.81969 V 810.89651 c 0,1.49114 -0.6051,2.84181 -1.58298,3.81969 -0.97789,0.97789 -2.32856,1.58299 -3.8197,1.58299 z"
     id="path826" /><path
     fill="#963ce1"
     d="m 996.17356,745.69424 -231.8534,70.86158 c -1.42901,0.43761 -2.89854,0.25122 -4.12225,-0.3998 -1.22371,-0.65102 -2.19349,-1.76938 -2.62841,-3.19839 L 534.59811,77.833577 c -0.43222,-1.426308 -0.24582,-2.890434 0.4025,-4.108739 0.65102,-1.218305 1.76397,-2.190788 3.18758,-2.625704 L 770.0416,0.2375545 c 1.42901,-0.43762 2.89854,-0.25122 4.12224,0.3998 1.22371,0.65102 2.19349,1.76938 2.62841,3.19839 L 999.76634,738.95979 c 0.43226,1.42631 0.24586,2.89044 -0.4025,4.10874 -0.65102,1.21831 -1.76667,2.19079 -3.19028,2.62571 z"
     id="path828" /></svg>
